<svg id="_001-facebook" data-name="001-facebook" xmlns="http://www.w3.org/2000/svg" width="32" height="32" viewBox="0 0 32 32">
  <g id="Group_300" data-name="Group 300">
    <path id="Path_223" data-name="Path 223" d="M28.25,0H3.75A3.754,3.754,0,0,0,0,3.75v24.5A3.754,3.754,0,0,0,3.75,32h24.5A3.754,3.754,0,0,0,32,28.25V3.75A3.754,3.754,0,0,0,28.25,0ZM29.5,28.25a1.251,1.251,0,0,1-1.25,1.25H21.125V19.313h3.862l.638-3.875h-4.5V12.75A1.843,1.843,0,0,1,23,10.875h2.562V7H23a5.749,5.749,0,0,0-5.749,5.761v2.677H13.5v3.875h3.751V29.5H3.75A1.251,1.251,0,0,1,2.5,28.25V3.75A1.251,1.251,0,0,1,3.75,2.5h24.5A1.251,1.251,0,0,1,29.5,3.75Z" fill="#165c7d"/>
  </g>
</svg>
