<svg xmlns="http://www.w3.org/2000/svg" width="42" height="29.376" viewBox="0 0 42 29.376">
  <g id="_001-google-wallet" data-name="001-google-wallet" transform="translate(0 0)">
    <g id="Group_261" data-name="Group 261" transform="translate(0 0)">
      <g id="Group_260" data-name="Group 260">
        <path id="Path_197" data-name="Path 197" d="M41.337,83.255A.663.663,0,0,0,42,82.592V80.011a3.071,3.071,0,0,0-3.067-3.067H3.067A3.071,3.071,0,0,0,0,80.011v23.242a3.071,3.071,0,0,0,3.067,3.068H38.932A3.071,3.071,0,0,0,42,103.253V84.744a.663.663,0,0,0-1.326,0v18.509a1.743,1.743,0,0,1-1.741,1.741H3.067a1.743,1.743,0,0,1-1.741-1.741V80.011A1.743,1.743,0,0,1,3.067,78.27H38.932a1.743,1.743,0,0,1,1.741,1.741v2.581A.663.663,0,0,0,41.337,83.255Z" transform="translate(0 -76.944)" fill="#4d829b"/>
      </g>
    </g>
    <g id="Group_263" data-name="Group 263" transform="translate(27.263 3.537)">
      <g id="Group_262" data-name="Group 262">
        <path id="Path_198" data-name="Path 198" d="M334.074,120.067h-1.061a.663.663,0,0,0,0,1.326h1.061a.663.663,0,0,0,0-1.326Z" transform="translate(-332.35 -120.067)" fill="#4d829b"/>
      </g>
    </g>
    <g id="Group_265" data-name="Group 265" transform="translate(30.21 3.537)">
      <g id="Group_264" data-name="Group 264">
        <path id="Path_199" data-name="Path 199" d="M370,120.067h-1.061a.663.663,0,0,0,0,1.326H370a.663.663,0,0,0,0-1.326Z" transform="translate(-368.278 -120.067)" fill="#4d829b"/>
      </g>
    </g>
    <g id="Group_267" data-name="Group 267" transform="translate(33.158 3.537)">
      <g id="Group_266" data-name="Group 266">
        <path id="Path_200" data-name="Path 200" d="M405.933,120.067h-1.061a.663.663,0,1,0,0,1.326h1.061a.663.663,0,1,0,0-1.326Z" transform="translate(-404.209 -120.067)" fill="#4d829b"/>
      </g>
    </g>
    <g id="Group_269" data-name="Group 269" transform="translate(36.105 3.537)">
      <g id="Group_268" data-name="Group 268">
        <path id="Path_201" data-name="Path 201" d="M441.863,120.067H440.8a.663.663,0,0,0,0,1.326h1.061a.663.663,0,0,0,0-1.326Z" transform="translate(-440.139 -120.067)" fill="#4d829b"/>
      </g>
    </g>
    <g id="Group_271" data-name="Group 271" transform="translate(14.954 23.786)">
      <g id="Group_270" data-name="Group 270">
        <path id="Path_202" data-name="Path 202" d="M193.724,366.9H182.958a.663.663,0,1,0,0,1.326h10.766a.663.663,0,0,0,0-1.326Z" transform="translate(-182.295 -366.905)" fill="#4d829b"/>
      </g>
    </g>
    <g id="Group_273" data-name="Group 273" transform="translate(13.765 6.691)">
      <g id="Group_272" data-name="Group 272">
        <path id="Path_203" data-name="Path 203" d="M181.952,162.9a15.961,15.961,0,0,0-1.118-3.184,2.2,2.2,0,0,0-1.943-1.214,2.084,2.084,0,0,0-.914.222,2.13,2.13,0,0,0-1.112,1.237,2.1,2.1,0,0,0,.113,1.631c.112.239.215.481.309.725a13.872,13.872,0,0,0-1.973-1.592,1.525,1.525,0,0,0-.262-.2,1.582,1.582,0,0,0-.16-.108.661.661,0,0,0-.221-.125,2.5,2.5,0,0,0-.324-.084l-.129.65.116-.653-.011,0-.066-.011c-.049-.008-.1-.014-.151-.019l-.029,0c-.066,0-.125-.007-.181-.007a1.846,1.846,0,0,0-.748.142,2.112,2.112,0,0,0-.725.461,1.971,1.971,0,0,0-.471.784,2.151,2.151,0,0,0,.057,1.55l-.006,0a10.618,10.618,0,0,0-1.252-.789l-.017-.009a2.082,2.082,0,0,0-.924-.227,2.03,2.03,0,0,0-1.768,1.056l-.011.021a2.011,2.011,0,0,0,.837,2.711,5.869,5.869,0,0,1,2.983,4.18c-.009.044-.017.089-.024.134l0,.012a2.033,2.033,0,0,0,0,.5,2.092,2.092,0,0,0,.994,1.592,1.6,1.6,0,0,0,.252.128c.019.008.039.016.058.025a.662.662,0,0,0,.2.087,2.389,2.389,0,0,0,.568.082,2.094,2.094,0,0,0,1.781-.995l.009-.013a9.855,9.855,0,0,0,.919-1.97,9.205,9.205,0,0,1,.18,1.813v.245a1.75,1.75,0,0,0-.031.32,2.042,2.042,0,0,0,.05.5,2.2,2.2,0,0,0,2.088,1.67,2.233,2.233,0,0,0,1.887-1.107c.009-.015.017-.03.025-.045a12.119,12.119,0,0,0,.89-2.334,9.021,9.021,0,0,0,.229-.885,15.063,15.063,0,0,0,.394-3.437A13.669,13.669,0,0,0,181.952,162.9Zm-9.005,3.7c0,.023,0,.047,0,.07,0,.048,0,.1-.008.144,0,.027,0,.055-.007.082q-.006.066-.013.132,0,.043-.01.085-.008.065-.018.13c0,.028-.008.055-.012.083-.007.046-.016.092-.024.137,0,.024-.009.049-.013.073q-.018.093-.04.186l0,.022c-.016.068-.034.136-.052.2-.006.024-.014.047-.02.071-.013.044-.026.089-.039.133l-.009.027a7.127,7.127,0,0,0-3.181-3.485.675.675,0,0,1-.333-.4.684.684,0,0,1,.043-.513.708.708,0,0,1,.61-.377.761.761,0,0,1,.323.083,9.31,9.31,0,0,1,1.1.7l.006,0,.018.013a8.982,8.982,0,0,1,1.32,1.2l.1.109.008.009c.086.1.168.2.245.294,0,.014,0,.027,0,.041s0,.038,0,.057,0,.067,0,.1c0,.019,0,.038,0,.057,0,.037,0,.075,0,.113,0,.016,0,.031,0,.047,0,.053,0,.106,0,.159C172.95,166.457,172.949,166.528,172.946,166.6Zm2.878.064c0,.052-.008.1-.011.157,0,.012,0,.025,0,.037,0,.041,0,.082,0,.124,0,.021,0,.043-.006.064l0,.046h0a8.9,8.9,0,0,1-1.237,3.8.776.776,0,0,1-.662.38.9.9,0,0,1-.165-.024c-.052-.026-.1-.047-.139-.064-.02-.008-.039-.016-.057-.025l-.013-.008a.753.753,0,0,1-.377-.581c0-.012,0-.024,0-.035a.694.694,0,0,1,0-.175v0a.592.592,0,0,1,.021-.1c0-.012.007-.024.01-.036l.007-.026a.667.667,0,0,0,.059-.082,7.2,7.2,0,0,0,1.038-3.733c0-.066,0-.133,0-.2,0-.017,0-.035,0-.052,0-.051,0-.1,0-.152,0-.023,0-.046,0-.069,0-.047,0-.093-.007-.14,0-.025-.005-.05-.007-.075,0-.046-.008-.091-.013-.138,0-.007,0-.015,0-.022l-.006-.052v0a6.561,6.561,0,0,0-.97-2.843l-.007-.011A.771.771,0,0,1,173.2,162l.006-.017a.68.68,0,0,1,.153-.274.828.828,0,0,1,.28-.168.543.543,0,0,1,.256-.047c.028,0,.055,0,.082,0h.016l.058.007.023,0,.02,0,.047.01.042.021a.284.284,0,0,1,.066.04.614.614,0,0,0,.129.086.313.313,0,0,1,.044.037l0,0,.035.038.021.026.013.016.025.032v0c.014.022.033.049.057.08a8.957,8.957,0,0,1,1.259,4.514C175.837,166.49,175.831,166.575,175.824,166.664Zm2.211,0c0,.027,0,.055,0,.082,0,.076-.005.152-.009.228,0,.043-.006.085-.009.128,0,.06-.007.12-.012.18s-.009.093-.013.139-.01.112-.016.167-.011.087-.016.13-.014.116-.021.174c-.005.039-.012.078-.018.116-.009.062-.018.124-.028.186-.005.032-.012.065-.017.1-.012.068-.024.136-.037.2-.005.028-.012.055-.017.083-.014.071-.029.142-.045.212a9.9,9.9,0,0,0-.641-1.761c0-.006,0-.012,0-.017,0-.068.007-.155.014-.247.009-.113.018-.229.018-.349,0,0,0-.008,0-.012q0-.178-.012-.355c0-.033,0-.065-.006-.1,0-.085-.01-.169-.016-.253,0-.042-.008-.084-.012-.127-.007-.074-.013-.147-.021-.22-.005-.047-.012-.093-.018-.14-.008-.068-.016-.136-.026-.2-.007-.049-.016-.1-.023-.147-.01-.064-.02-.129-.031-.193s-.019-.1-.029-.151-.023-.123-.036-.184-.023-.1-.035-.154-.026-.118-.041-.177-.027-.1-.041-.156-.026-.1-.04-.153a11.061,11.061,0,0,1,1.206,1.546c.036.368.056.74.056,1.115Q178.039,166.51,178.035,166.666Zm2.954-.331c0,.006,0,.013,0,.019a13.734,13.734,0,0,1-.359,3.143l0,.01a7.8,7.8,0,0,1-.2.779c0,.013-.008.026-.012.039a10.817,10.817,0,0,1-.787,2.077.91.91,0,0,1-.738.443.767.767,0,0,1-.331-.087l-.035-.016a.786.786,0,0,1-.431-.544l0-.012a.456.456,0,0,1-.01-.082.661.661,0,0,0,.03-.188s0,0,0-.008a1.376,1.376,0,0,1,.036-.178l.017-.041c.009-.022.019-.046.028-.072l0-.005.041-.09c.034-.072.067-.144.1-.217.021-.047.04-.094.06-.14s.049-.114.073-.171.052-.132.077-.2c.015-.039.031-.077.046-.116.03-.081.059-.162.087-.243l.027-.074c.034-.1.066-.2.1-.294l.009-.026q.05-.16.1-.321v0a12.183,12.183,0,0,0,.418-2.328v0q.013-.162.022-.325c0-.006,0-.011,0-.017q.018-.343.018-.691a12.869,12.869,0,0,0-.067-1.39.659.659,0,0,0-.024-.114,12.438,12.438,0,0,0-1.1-3.83l-.012-.024a.757.757,0,0,1-.041-.6.787.787,0,0,1,.42-.466l.02-.009a.767.767,0,0,1,.331-.087.879.879,0,0,1,.752.473,14.588,14.588,0,0,1,1.018,2.907A12.3,12.3,0,0,1,180.989,166.335Z" transform="translate(-167.8 -158.505)" fill="#4d829b"/>
      </g>
    </g>
  </g>
</svg>
