<svg id="_002-youtube" data-name="002-youtube" xmlns="http://www.w3.org/2000/svg" width="32" height="32" viewBox="0 0 32 32">
  <path id="Path_224" data-name="Path 224" d="M28.522,0H3.478A3.482,3.482,0,0,0,0,3.478V28.522A3.482,3.482,0,0,0,3.478,32H28.522A3.482,3.482,0,0,0,32,28.522V3.478A3.482,3.482,0,0,0,28.522,0Zm2.087,28.522a2.09,2.09,0,0,1-2.087,2.087H3.478a2.09,2.09,0,0,1-2.087-2.087V3.478A2.09,2.09,0,0,1,3.478,1.391H28.522a2.09,2.09,0,0,1,2.087,2.087Zm0,0" fill="#165c7d"/>
  <path id="Path_225" data-name="Path 225" d="M112.374,73.844l-15.3-9.739A.7.7,0,0,0,96,64.693V84.171a.7.7,0,0,0,1.069.587l15.3-9.739a.7.7,0,0,0,0-1.175ZM97.391,82.9v0Zm0,0" transform="translate(-87.652 -58.432)" fill="#165c7d"/>
</svg>
