<svg xmlns="http://www.w3.org/2000/svg" width="42" height="28.875" viewBox="0 0 42 28.875">
  <g id="_002-paypal" data-name="002-paypal" transform="translate(0 0)">
    <g id="Group_274" data-name="Group 274" transform="translate(0 0)">
      <path id="Path_204" data-name="Path 204" d="M39.375,80H2.625A2.629,2.629,0,0,0,0,82.625V106.25a2.629,2.629,0,0,0,2.625,2.625h36.75A2.629,2.629,0,0,0,42,106.25V82.625A2.629,2.629,0,0,0,39.375,80ZM15.952,101H14.674L16.86,87.875h6.056a2.587,2.587,0,0,1,2,.919,2.625,2.625,0,0,1-2,4.331H18.375a1.311,1.311,0,0,0-1.294,1.1Zm11.959-8.917a2.583,2.583,0,0,1,.22,1.483,2.648,2.648,0,0,1-2.591,2.184H22.916A5.223,5.223,0,0,0,27.912,92.083ZM17.3,103.625l.008-.045a1.3,1.3,0,0,0,1.045-1.053l1.129-6.778H21a1.311,1.311,0,0,0-1.294,1.1l-1.129,6.778Zm22.071,3.938V106.25H19.688a1.311,1.311,0,0,0,1.294-1.1l1.129-6.778h3.431a5.231,5.231,0,0,0,2.142-10.012,5.3,5.3,0,0,0-.769-1.271,5.243,5.243,0,0,0-4-1.843H15.75a1.311,1.311,0,0,0-1.294,1.1L11.831,102.1a1.312,1.312,0,0,0,.294,1.063,1.3,1.3,0,0,0,1,.465h1.517l-.186,1.092a1.312,1.312,0,0,0,1.294,1.533H2.625V82.625h36.75V106.25h0Z" transform="translate(0 -80)" fill="#4d829b"/>
    </g>
  </g>
</svg>
