<svg xmlns="http://www.w3.org/2000/svg" width="42" height="29.4" viewBox="0 0 42 29.4">
  <g id="_003-visa-logo" data-name="003-visa-logo" transform="translate(0 -2.431)">
    <g id="Group_275" data-name="Group 275" transform="translate(0 2.431)">
      <path id="Path_205" data-name="Path 205" d="M39.6,2.431H2.4A2.407,2.407,0,0,0,0,4.836v24.59a2.407,2.407,0,0,0,2.4,2.4H39.6a2.407,2.407,0,0,0,2.4-2.4V4.833A2.406,2.406,0,0,0,39.6,2.431Zm-.062,26.931-37.066.062L2.4,4.9l37.128-.062Z" transform="translate(0 -2.431)" fill="#4d829b"/>
      <path id="Path_206" data-name="Path 206" d="M3.375,7.9,4.5,15.976H7.272l5.163-10H9.525l-2.192,4.64c-.309.659-.579,1.254-.811,1.8-.042-.57-.089-1.123-.145-1.688l-.443-4.75H1.506l4.6,3.641Z" transform="translate(2.025 3.73)" fill="#4d829b"/>
      <path id="Path_207" data-name="Path 207" d="M8.51,15.977l1.9-10H7.8l-1.9,10Z" transform="translate(9.59 3.731)" fill="#4d829b"/>
      <path id="Path_208" data-name="Path 208" d="M7.77,15.472a5.046,5.046,0,0,0,2.872.729c2.464,0,4.12-1.393,4.12-3.463A3.1,3.1,0,0,0,12.743,10c-.76-.427-1.222-.713-1.222-1.074,0-.338.354-.7,1.193-.7a3.463,3.463,0,0,1,1.562.385l.3.162L15.4,6.541l-.218-.122a4.812,4.812,0,0,0-2.366-.511c-2.359,0-4.007,1.379-4.007,3.353a3.277,3.277,0,0,0,2.115,2.76c.928.483,1.111.757,1.111,1.069,0,.6-.647.814-1.2.814a4.132,4.132,0,0,1-2.073-.56l-.293-.174-.882,2.171Z" transform="translate(12.563 3.644)" fill="#4d829b"/>
      <path id="Path_209" data-name="Path 209" d="M13.32,15.977l1.118-2.445h2.256l.2,2.445H19.6l-1.172-10H15.4l-4.868,10ZM16.04,9.8c.1-.225.209-.483.317-.748.019.237.035.46.049.652l.152,1.709H15.292Z" transform="translate(18.159 3.731)" fill="#4d829b"/>
    </g>
  </g>
</svg>
