<svg xmlns="http://www.w3.org/2000/svg" width="32" height="32" viewBox="0 0 32 32">
  <path id="_003-linkedin" data-name="003-linkedin" d="M10,26.437H5.626V12.312H10Zm.437-18.625a2.562,2.562,0,1,0-2.561,2.563A2.563,2.563,0,0,0,10.437,7.812ZM26.375,18.667c0-3.792-.8-6.6-5.23-6.6A4.54,4.54,0,0,0,17,14.234h0V12.312H12.75V26.437H17V19.424c0-1.837.468-3.616,2.744-3.616,2.246,0,2.318,2.1,2.318,3.733v6.9h4.312ZM32,28.25V3.75A3.754,3.754,0,0,0,28.25,0H3.75A3.754,3.754,0,0,0,0,3.75v24.5A3.754,3.754,0,0,0,3.75,32h24.5A3.754,3.754,0,0,0,32,28.25ZM28.25,2.5A1.251,1.251,0,0,1,29.5,3.75v24.5a1.251,1.251,0,0,1-1.25,1.25H3.75A1.251,1.251,0,0,1,2.5,28.25V3.75A1.251,1.251,0,0,1,3.75,2.5Zm0,0" transform="translate(0)" fill="#165c7d"/>
</svg>
