<svg id="_004-twitter" data-name="004-twitter" xmlns="http://www.w3.org/2000/svg" width="32" height="32" viewBox="0 0 32 32">
  <path id="Path_226" data-name="Path 226" d="M28.522,0H3.478A3.482,3.482,0,0,0,0,3.478V28.522A3.482,3.482,0,0,0,3.478,32H28.522A3.482,3.482,0,0,0,32,28.522V3.478A3.482,3.482,0,0,0,28.522,0Zm2.087,28.522a2.09,2.09,0,0,1-2.087,2.087H3.478a2.09,2.09,0,0,1-2.087-2.087V3.478A2.09,2.09,0,0,1,3.478,1.391H28.522a2.09,2.09,0,0,1,2.087,2.087Zm0,0" fill="#165c7d"/>
  <path id="Path_227" data-name="Path 227" d="M94.609,77.913H86.957V75.13h4.87a3.478,3.478,0,0,0,0-6.957h-4.87v-.7a3.478,3.478,0,1,0-6.957,0v11.13a6.268,6.268,0,0,0,6.261,6.261h8.348a3.478,3.478,0,1,0,0-6.957Zm0,5.565Z" transform="translate(-73.043 -58.435)" fill="#165c7d"/>
</svg>
