<svg xmlns="http://www.w3.org/2000/svg" width="42" height="29.377" viewBox="0 0 42 29.377">
  <g id="_005-american-express" data-name="005-american-express" transform="translate(0 0)">
    <g id="Group_277" data-name="Group 277" transform="translate(15.482 9.678)">
      <g id="Group_276" data-name="Group 276">
        <path id="Path_212" data-name="Path 212" d="M191.828,195.755v-.828h-3.093v3.922h3.093v-.828h-2.154v-.774h2.1v-.773h-2.1v-.718Z" transform="translate(-188.735 -194.927)" fill="#4d829b"/>
      </g>
    </g>
    <g id="Group_279" data-name="Group 279" transform="translate(23.437 9.679)">
      <g id="Group_278" data-name="Group 278">
        <rect id="Rectangle_204" data-name="Rectangle 204" width="0.939" height="3.867" fill="#4d829b"/>
      </g>
    </g>
    <g id="Group_281" data-name="Group 281" transform="translate(30.783 16.196)">
      <g id="Group_280" data-name="Group 280">
        <path id="Path_213" data-name="Path 213" d="M378.3,276.318a1.407,1.407,0,0,0-1.049-.331h-.5a.7.7,0,0,1-.331-.055c-.11-.055-.221-.11-.221-.276,0-.11,0-.221.11-.276a.819.819,0,0,1,.387-.055h1.712v-.939h-1.823c-.995,0-1.326.608-1.326,1.16,0,1.215,1.05,1.16,1.933,1.215a.468.468,0,0,1,.332.111.4.4,0,0,1,0,.552.466.466,0,0,1-.387.111h-1.768v.829h1.768c.939,0,1.436-.387,1.436-1.215A1.143,1.143,0,0,0,378.3,276.318Z" transform="translate(-375.259 -274.385)" fill="#4d829b"/>
      </g>
    </g>
    <g id="Group_283" data-name="Group 283" transform="translate(34.374 16.196)">
      <g id="Group_282" data-name="Group 282">
        <path id="Path_214" data-name="Path 214" d="M422.383,276.948a1.19,1.19,0,0,0-.773-.873,1.727,1.727,0,0,0-.591-.088h-.5a.7.7,0,0,1-.331-.055c-.166-.055-.221-.11-.221-.276a.422.422,0,0,1,.111-.276.818.818,0,0,1,.387-.055h1.712v-.939h-1.823a2.065,2.065,0,0,0-.285.02,1.129,1.129,0,0,0-1.041,1.14c0,1.215,1.05,1.16,1.933,1.215a.467.467,0,0,1,.331.111.4.4,0,0,1,0,.552.466.466,0,0,1-.387.111h-1.767v.829h1.767a1.61,1.61,0,0,0,1.16-.387,1.123,1.123,0,0,0,.331-.828A1.247,1.247,0,0,0,422.383,276.948Z" transform="translate(-419.031 -274.385)" fill="#4d829b"/>
      </g>
    </g>
    <g id="Group_285" data-name="Group 285" transform="translate(27.248 16.252)">
      <g id="Group_284" data-name="Group 284">
        <path id="Path_215" data-name="Path 215" d="M335.26,275.886v-.828h-3.093v3.922h3.093v-.829h-2.155v-.773h2.1V276.6h-2.1v-.718Z" transform="translate(-332.167 -275.058)" fill="#4d829b"/>
      </g>
    </g>
    <g id="Group_287" data-name="Group 287" transform="translate(0 0)">
      <g id="Group_286" data-name="Group 286">
        <path id="Path_216" data-name="Path 216" d="M41.337,83.254A.663.663,0,0,0,42,82.591V80.01a3.071,3.071,0,0,0-3.067-3.067H3.067A3.071,3.071,0,0,0,0,80.01v23.242a3.071,3.071,0,0,0,3.067,3.068H38.933A3.071,3.071,0,0,0,42,103.252V84.743a.663.663,0,0,0-1.326,0v18.509a1.743,1.743,0,0,1-1.741,1.741H3.067a1.743,1.743,0,0,1-1.741-1.741V80.01a1.743,1.743,0,0,1,1.741-1.741H38.933a1.743,1.743,0,0,1,1.741,1.741v2.581A.663.663,0,0,0,41.337,83.254Z" transform="translate(0 -76.943)" fill="#4d829b"/>
      </g>
    </g>
    <g id="Group_289" data-name="Group 289" transform="translate(4.899 9.678)">
      <g id="Group_288" data-name="Group 288">
        <path id="Path_217" data-name="Path 217" d="M68.1,194.926l-1.1,2.651-.018.057-.5-1.136-.7-1.517h0l-.026-.055H64.288v3.7l-1.547-3.7H61.36l-1.634,3.867H60.7l.2-.436.183-.393h1.878l.387.829h1.878v-3.038l1.326,3.038h.814l1.285-2.913v0l.055-.127v3.038h.884v-3.867Zm-6.684,2.209.608-1.547.608,1.547Z" transform="translate(-59.726 -194.926)" fill="#4d829b"/>
      </g>
    </g>
    <g id="Group_291" data-name="Group 291" transform="translate(24.817 9.678)">
      <g id="Group_290" data-name="Group 290">
        <path id="Path_218" data-name="Path 218" d="M311.926,194.98v2.707l-1.6-2.707h-1.381v3.7l-.407-.974-1.14-2.727h-1.381l-1.141,2.727-.13.311h-.387a.88.88,0,0,1-.663-.221,1.2,1.2,0,0,1-.276-.939,1.3,1.3,0,0,1,.276-.884,1.018,1.018,0,0,1,.718-.221h.884v-.829h-.884a1.741,1.741,0,0,0-1.381.442,2.263,2.263,0,0,0-.5,1.547,1.66,1.66,0,0,0,1.823,1.933h1.05l.331-.884h1.933l.161.4.17.426h.939v0h.933v-.505l.006.006v-2.431l1.768,2.928h1.215V194.98Zm-5.855,2.154.663-1.547.608,1.547Z" transform="translate(-302.536 -194.925)" fill="#4d829b"/>
      </g>
    </g>
    <g id="Group_293" data-name="Group 293" transform="translate(19.183 9.678)">
      <g id="Group_292" data-name="Group 292">
        <path id="Path_219" data-name="Path 219" d="M237.438,197.918s0-.006,0-.009,0-.01,0-.016c0-.042,0-.082-.007-.121,0-.01,0-.02,0-.03,0-.028-.007-.056-.012-.083l-.005-.027c-.006-.028-.012-.054-.019-.08l0-.017c-.009-.03-.019-.059-.03-.087a.868.868,0,0,0-.114-.2.62.62,0,0,0-.054-.065l0,0a.741.741,0,0,0-.35-.209,1.1,1.1,0,0,0,.661-1.019.934.934,0,0,0-.44-.859,2.119,2.119,0,0,0-1.1-.166h-2.1v3.867h.939v-.828h0v-.553h.994a1.1,1.1,0,0,1,.5.054.5.5,0,0,1,.162.111.791.791,0,0,1,.132.32h0a1.9,1.9,0,0,1,.033.35v0c0,.036,0,.07,0,.1v.442h.828v-.773c0-.034,0-.065,0-.1C237.438,197.921,237.438,197.92,237.438,197.918Zm-1-1.442a.3.3,0,0,1-.043.059l-.013.015h0a.2.2,0,0,1-.046.033,1.075,1.075,0,0,1-.442.055h-1.1v-.884h1.1a1.079,1.079,0,0,1,.442.055.309.309,0,0,1,.168.188h0s0,.008,0,.013a.327.327,0,0,1,.008.05A.6.6,0,0,1,236.438,196.476Z" transform="translate(-233.85 -194.924)" fill="#4d829b"/>
      </g>
    </g>
    <g id="Group_295" data-name="Group 295" transform="translate(2.256 7.579)">
      <g id="Group_294" data-name="Group 294">
        <path id="Path_220" data-name="Path 220" d="M64.98,180.821a3.536,3.536,0,0,0-.276-1.359v-2.176c0-.027,0-.055,0-.082v-.084a1.326,1.326,0,0,0-1.326-1.326h-.826v-5.137a1.326,1.326,0,0,0-1.326-1.326H58.737a1.357,1.357,0,0,0-.166.01,1.333,1.333,0,0,0-.165-.01h-2.6a1.345,1.345,0,0,1-.332,0H51.943a5.325,5.325,0,0,0-1.045.1,1.322,1.322,0,0,0-.5-.1H47.911a1.331,1.331,0,0,0-.4.06,3.424,3.424,0,0,0-.652-.06H37.968a1.325,1.325,0,0,0-.608.147,1.324,1.324,0,0,0-.608-.147H33.935a1.339,1.339,0,0,1-.276,0h-2.43a1.326,1.326,0,0,0-1.22.807l-1.1,2.583-1.265,2.8-.013.03-.023.055a1.326,1.326,0,0,0,1.222,1.841h2.876a1.324,1.324,0,0,0,.7-.2,1.325,1.325,0,0,0,.7.2h2.1V182.7a1.326,1.326,0,0,0,1.326,1.326h4.861a1.327,1.327,0,0,0,.746-.229,1.326,1.326,0,0,0,.746.229h3.093a1.32,1.32,0,0,0,.735-.222,1.32,1.32,0,0,0,.812.277H50.01a1.349,1.349,0,0,1,.276,0H57.8a4.5,4.5,0,0,0,.827-.076,1.325,1.325,0,0,0,.443.076h2.375a3.752,3.752,0,0,0,2.033-.481,3.165,3.165,0,0,0,1.489-2.475c0-.025.006-.05.008-.075a1.333,1.333,0,0,0,0-.164C64.979,180.866,64.98,180.844,64.98,180.821Zm-28.669-5.358v.663h-3.2l-.331-.884h-.718l-.331.828-.02.055H28.83l.023-.055,1.27-2.817,1.1-2.6h2.43l.276.663v-.663h2.817l.608,1.381.608-1.381h8.893a1.593,1.593,0,0,1,1.05.331v-.331H50.4v.331a3.363,3.363,0,0,1,1.547-.331h3.535l.332.663v-.663h2.6l.331.663v-.663h2.486v5.413h-2.6l-.5-.828v.828h-3.2l-.331-.884h-.773l-.331.884H51.833a3.306,3.306,0,0,1-1.491-.331v.331H46.364v-1.215c0-.166,0-.166-.11-.166h-.11v1.436H38.465v-.663l-.276.663h-1.6Zm27.336,5.526a1.855,1.855,0,0,1-.877,1.489,2.479,2.479,0,0,1-1.326.276H59.069v-.332a2.165,2.165,0,0,1-1.27.332H50.286v-1.271c0-.166,0-.166-.166-.166h-.11v1.436H47.524v-1.492a3.355,3.355,0,0,1-1.27.166h-.276V182.7H42.884l-.692-.8-.8.8H36.532V177.12H41.5l.718.829.773-.829h3.314a2.322,2.322,0,0,1,1.207.277h0a.6.6,0,0,1,.064.055v-.331h2.983a2.137,2.137,0,0,1,1.215.331v-.331h4.529v.331a1.756,1.756,0,0,1,1.1-.331h2.541v.331l.005,0h0c.01-.008.034-.026.069-.05h0a1.4,1.4,0,0,1,.688-.277h2.66v.166h0v2.486a2.115,2.115,0,0,1,.276,1.05c0,.036,0,.072,0,.107l0,0C63.652,180.951,63.649,180.97,63.647,180.989Z" transform="translate(-27.504 -169.331)" fill="#4d829b"/>
      </g>
    </g>
    <g id="Group_297" data-name="Group 297" transform="translate(12.223 16.307)">
      <g id="Group_296" data-name="Group 296">
        <path id="Path_221" data-name="Path 221" d="M159.341,276.452a1.433,1.433,0,0,0-1.445-.718h-2.928l-1.16,1.27-.028.029-.206-.225-.981-1.074H149V279.6h3.535l1.215-1.271.052.059,0,0,1.057,1.215h1.816v-.608h0v-.828h1.1c.828,0,1.6-.221,1.6-1.326A1.568,1.568,0,0,0,159.341,276.452Zm-7.245,2.375h-2.265V278h2.044v-.774h-2.044v-.718h2.32l.994,1.16Zm3.646.441-1.436-1.6,1.436-1.547ZM157.9,277.5H156.68v-.994h1.16a.558.558,0,0,1,.608.5C158.448,277.336,158.227,277.5,157.9,277.5Z" transform="translate(-149.002 -275.734)" fill="#4d829b"/>
      </g>
    </g>
    <g id="Group_299" data-name="Group 299" transform="translate(22.995 16.252)">
      <g id="Group_298" data-name="Group 298">
        <path id="Path_222" data-name="Path 222" d="M284.011,278.063c0-.021,0-.042,0-.062s0-.029,0-.044,0-.03-.006-.045,0-.032-.007-.048,0-.014,0-.022a1.106,1.106,0,0,0-.049-.18l0-.008q-.011-.028-.023-.055a.827.827,0,0,0-.061-.111.943.943,0,0,0-.5-.331,1.1,1.1,0,0,0,.663-1.05.978.978,0,0,0-.5-.884,2.228,2.228,0,0,0-1.1-.166h-2.1v3.922h.939v-1.436h.994c.331,0,.553,0,.663.165a1.233,1.233,0,0,1,.166.774v.5h.939v-.773c0-.037,0-.073,0-.108C284.013,278.087,284.012,278.075,284.011,278.063Zm-.99-1.678a.43.43,0,0,1-.166.387,1.074,1.074,0,0,1-.442.055h-1.1v-.884h1.1a1.074,1.074,0,0,1,.442.055A.307.307,0,0,1,283.021,276.385Z" transform="translate(-280.315 -275.059)" fill="#4d829b"/>
      </g>
    </g>
  </g>
</svg>
