<svg xmlns="http://www.w3.org/2000/svg" width="38.442" height="26.958" viewBox="0 0 38.442 26.958">
  <g id="delivery" transform="translate(0.5 -78.021)">
    <g id="Group_768" data-name="Group 768" transform="translate(23.559 95.04)">
      <g id="Group_767" data-name="Group 767" transform="translate(0 0)">
        <path id="Path_319" data-name="Path 319" d="M326.871,304.4a4.72,4.72,0,1,0,4.72,4.72A4.725,4.725,0,0,0,326.871,304.4Zm0,7.079a2.36,2.36,0,1,1,2.36-2.36A2.362,2.362,0,0,1,326.871,311.482Z" transform="translate(-322.151 -304.403)" fill="#165c7d" stroke="#fff" stroke-width="1"/>
      </g>
    </g>
    <g id="Group_770" data-name="Group 770" transform="translate(7.433 95.04)">
      <g id="Group_769" data-name="Group 769" transform="translate(0 0)">
        <path id="Path_320" data-name="Path 320" d="M106.367,304.4a4.72,4.72,0,1,0,4.72,4.72A4.725,4.725,0,0,0,106.367,304.4Zm0,7.079a2.36,2.36,0,1,1,2.36-2.36A2.362,2.362,0,0,1,106.367,311.482Z" transform="translate(-101.647 -304.403)" fill="#165c7d" stroke="#fff" stroke-width="1"/>
      </g>
    </g>
    <g id="Group_772" data-name="Group 772" transform="translate(24.188 80.881)">
      <g id="Group_771" data-name="Group 771" transform="translate(0 0)">
        <path id="Path_321" data-name="Path 321" d="M338.025,111.44a1.181,1.181,0,0,0-1.054-.65h-6.214v2.36h5.487l3.213,6.39,2.109-1.06Z" transform="translate(-330.756 -110.79)" fill="#165c7d" stroke="#fff" stroke-width="1"/>
      </g>
    </g>
    <g id="Group_774" data-name="Group 774" transform="translate(15.811 98.619)">
      <g id="Group_773" data-name="Group 773" transform="translate(0 0)">
        <rect id="Rectangle_435" data-name="Rectangle 435" width="8.928" height="2.36" fill="#165c7d" stroke="#fff" stroke-width="1"/>
      </g>
    </g>
    <g id="Group_776" data-name="Group 776" transform="translate(3.343 98.619)">
      <g id="Group_775" data-name="Group 775" transform="translate(0 0)">
        <path id="Path_322" data-name="Path 322" d="M50.985,353.345h-4.09a1.18,1.18,0,1,0,0,2.36h4.09a1.18,1.18,0,1,0,0-2.36Z" transform="translate(-45.715 -353.345)" fill="#165c7d" stroke="#fff" stroke-width="1"/>
      </g>
    </g>
    <g id="Group_778" data-name="Group 778" transform="translate(3.343 78.521)">
      <g id="Group_777" data-name="Group 777" transform="translate(0 0)">
        <path id="Path_323" data-name="Path 323" d="M79.567,91.406l-2.321-2.989a1.178,1.178,0,0,0-.932-.456H67.74V79.7a1.18,1.18,0,0,0-1.18-1.18H46.895a1.18,1.18,0,1,0,0,2.36H65.38V89.14a1.18,1.18,0,0,0,1.18,1.18h9.176l1.718,2.213v6.085H74.19a1.18,1.18,0,1,0,0,2.36h4.444a1.18,1.18,0,0,0,1.18-1.18V92.129A1.182,1.182,0,0,0,79.567,91.406Z" transform="translate(-45.715 -78.521)" fill="#165c7d" stroke="#fff" stroke-width="1"/>
      </g>
    </g>
    <g id="Group_780" data-name="Group 780" transform="translate(1.927 92.641)">
      <g id="Group_779" data-name="Group 779" transform="translate(0 0)">
        <path id="Path_324" data-name="Path 324" d="M32.96,271.6H27.533a1.18,1.18,0,1,0,0,2.36H32.96a1.18,1.18,0,0,0,0-2.36Z" transform="translate(-26.353 -271.597)" fill="#165c7d" stroke="#fff" stroke-width="1"/>
      </g>
    </g>
    <g id="Group_782" data-name="Group 782" transform="translate(0 88)">
      <g id="Group_781" data-name="Group 781" transform="translate(0 0)">
        <path id="Path_325" data-name="Path 325" d="M11.248,208.134H1.18a1.18,1.18,0,0,0,0,2.36H11.248a1.18,1.18,0,0,0,0-2.36Z" transform="translate(0 -208.134)" fill="#165c7d" stroke="#fff" stroke-width="1"/>
      </g>
    </g>
    <g id="Group_784" data-name="Group 784" transform="translate(1.927 83.359)">
      <g id="Group_783" data-name="Group 783" transform="translate(0 0)">
        <path id="Path_326" data-name="Path 326" d="M37.6,144.672H27.533a1.18,1.18,0,1,0,0,2.36H37.6a1.18,1.18,0,1,0,0-2.36Z" transform="translate(-26.353 -144.672)" fill="#165c7d" stroke="#fff" stroke-width="1"/>
      </g>
    </g>
  </g>
</svg>
