<svg id="information" xmlns="http://www.w3.org/2000/svg" width="16.9" height="16.9" viewBox="0 0 16.9 16.9">
  <path id="Path_363" data-name="Path 363" d="M8.45,0A8.45,8.45,0,1,0,16.9,8.45,8.46,8.46,0,0,0,8.45,0Zm0,15.364A6.914,6.914,0,1,1,15.364,8.45,6.921,6.921,0,0,1,8.45,15.364Z" fill="#47afff"/>
  <path id="Path_364" data-name="Path 364" d="M146.026,70a1.024,1.024,0,1,0,1.024,1.025A1.026,1.026,0,0,0,146.026,70Z" transform="translate(-137.576 -66.415)" fill="#47afff"/>
  <path id="Path_365" data-name="Path 365" d="M150.768,140a.768.768,0,0,0-.768.768v4.609a.768.768,0,1,0,1.536,0v-4.609A.768.768,0,0,0,150.768,140Z" transform="translate(-142.318 -132.83)" fill="#47afff"/>
</svg>
