<svg id="Payment_gateway" data-name="Payment gateway" xmlns="http://www.w3.org/2000/svg" width="242" height="29.438" viewBox="0 0 242 29.438">
  <g id="_002-paypal" data-name="002-paypal" transform="translate(50 0)">
    <g id="Group_274" data-name="Group 274" transform="translate(0 0)">
      <path id="Path_204" data-name="Path 204" d="M39.375,80H2.625A2.629,2.629,0,0,0,0,82.625V106.25a2.629,2.629,0,0,0,2.625,2.625h36.75A2.629,2.629,0,0,0,42,106.25V82.625A2.629,2.629,0,0,0,39.375,80ZM15.952,101H14.674L16.86,87.875h6.056a2.587,2.587,0,0,1,2,.919,2.625,2.625,0,0,1-2,4.331H18.375a1.311,1.311,0,0,0-1.294,1.1Zm11.959-8.917a2.583,2.583,0,0,1,.22,1.483,2.648,2.648,0,0,1-2.591,2.184H22.916A5.223,5.223,0,0,0,27.912,92.083ZM17.3,103.625l.008-.045a1.3,1.3,0,0,0,1.045-1.053l1.129-6.778H21a1.311,1.311,0,0,0-1.294,1.1l-1.129,6.778Zm22.071,3.938V106.25H19.688a1.311,1.311,0,0,0,1.294-1.1l1.129-6.778h3.431a5.231,5.231,0,0,0,2.142-10.012,5.3,5.3,0,0,0-.769-1.271,5.243,5.243,0,0,0-4-1.843H15.75a1.311,1.311,0,0,0-1.294,1.1L11.831,102.1a1.312,1.312,0,0,0,.294,1.063,1.3,1.3,0,0,0,1,.465h1.517l-.186,1.092a1.312,1.312,0,0,0,1.294,1.533H2.625V82.625h36.75V106.25h0Z" transform="translate(0 -80)" fill="#4d829b"/>
    </g>
  </g>
  <g id="surface1" transform="translate(100 0)">
    <path id="Path_210" data-name="Path 210" d="M93.24,64.263a9.557,9.557,0,1,0,0,16.3,9.555,9.555,0,1,0,0-16.3Zm0,13.146a7.052,7.052,0,0,1,0-9.995A7.052,7.052,0,0,1,93.24,77.409Zm-4.988,2.066a7.064,7.064,0,1,1,2.906-13.5,9.572,9.572,0,0,0,0,12.876A7.014,7.014,0,0,1,88.252,79.476Zm9.975,0a7.014,7.014,0,0,1-2.906-.626,9.572,9.572,0,0,0,0-12.876,7.064,7.064,0,1,1,2.906,13.5Zm0,0" transform="translate(-72.24 -57.693)" fill="#4d829b"/>
    <path id="Path_211" data-name="Path 211" d="M38.26,0H3.74A3.745,3.745,0,0,0,0,3.74V25.7a3.745,3.745,0,0,0,3.74,3.74H38.26A3.745,3.745,0,0,0,42,25.7V3.74A3.745,3.745,0,0,0,38.26,0Zm1.247,25.7a1.248,1.248,0,0,1-1.247,1.247H3.74A1.248,1.248,0,0,1,2.493,25.7V3.74A1.248,1.248,0,0,1,3.74,2.493H38.26A1.248,1.248,0,0,1,39.507,3.74Zm0,0" transform="translate(0 0)" fill="#4d829b"/>
  </g>
  <g id="_005-american-express" data-name="005-american-express" transform="translate(150 0)">
    <g id="Group_277" data-name="Group 277" transform="translate(15.482 9.678)">
      <g id="Group_276" data-name="Group 276">
        <path id="Path_212" data-name="Path 212" d="M191.828,195.755v-.828h-3.093v3.922h3.093v-.828h-2.154v-.774h2.1v-.773h-2.1v-.718Z" transform="translate(-188.735 -194.927)" fill="#4d829b"/>
      </g>
    </g>
    <g id="Group_279" data-name="Group 279" transform="translate(23.437 9.679)">
      <g id="Group_278" data-name="Group 278">
        <rect id="Rectangle_204" data-name="Rectangle 204" width="0.939" height="3.867" fill="#4d829b"/>
      </g>
    </g>
    <g id="Group_281" data-name="Group 281" transform="translate(30.783 16.196)">
      <g id="Group_280" data-name="Group 280">
        <path id="Path_213" data-name="Path 213" d="M378.3,276.318a1.407,1.407,0,0,0-1.049-.331h-.5a.7.7,0,0,1-.331-.055c-.11-.055-.221-.11-.221-.276,0-.11,0-.221.11-.276a.819.819,0,0,1,.387-.055h1.712v-.939h-1.823c-.995,0-1.326.608-1.326,1.16,0,1.215,1.05,1.16,1.933,1.215a.468.468,0,0,1,.332.111.4.4,0,0,1,0,.552.466.466,0,0,1-.387.111h-1.768v.829h1.768c.939,0,1.436-.387,1.436-1.215A1.143,1.143,0,0,0,378.3,276.318Z" transform="translate(-375.259 -274.385)" fill="#4d829b"/>
      </g>
    </g>
    <g id="Group_283" data-name="Group 283" transform="translate(34.374 16.196)">
      <g id="Group_282" data-name="Group 282">
        <path id="Path_214" data-name="Path 214" d="M422.383,276.948a1.19,1.19,0,0,0-.773-.873,1.727,1.727,0,0,0-.591-.088h-.5a.7.7,0,0,1-.331-.055c-.166-.055-.221-.11-.221-.276a.422.422,0,0,1,.111-.276.818.818,0,0,1,.387-.055h1.712v-.939h-1.823a2.065,2.065,0,0,0-.285.02,1.129,1.129,0,0,0-1.041,1.14c0,1.215,1.05,1.16,1.933,1.215a.467.467,0,0,1,.331.111.4.4,0,0,1,0,.552.466.466,0,0,1-.387.111h-1.767v.829h1.767a1.61,1.61,0,0,0,1.16-.387,1.123,1.123,0,0,0,.331-.828A1.247,1.247,0,0,0,422.383,276.948Z" transform="translate(-419.031 -274.385)" fill="#4d829b"/>
      </g>
    </g>
    <g id="Group_285" data-name="Group 285" transform="translate(27.248 16.252)">
      <g id="Group_284" data-name="Group 284">
        <path id="Path_215" data-name="Path 215" d="M335.26,275.886v-.828h-3.093v3.922h3.093v-.829h-2.155v-.773h2.1V276.6h-2.1v-.718Z" transform="translate(-332.167 -275.058)" fill="#4d829b"/>
      </g>
    </g>
    <g id="Group_287" data-name="Group 287" transform="translate(0 0)">
      <g id="Group_286" data-name="Group 286">
        <path id="Path_216" data-name="Path 216" d="M41.337,83.254A.663.663,0,0,0,42,82.591V80.01a3.071,3.071,0,0,0-3.067-3.067H3.067A3.071,3.071,0,0,0,0,80.01v23.242a3.071,3.071,0,0,0,3.067,3.068H38.933A3.071,3.071,0,0,0,42,103.252V84.743a.663.663,0,0,0-1.326,0v18.509a1.743,1.743,0,0,1-1.741,1.741H3.067a1.743,1.743,0,0,1-1.741-1.741V80.01a1.743,1.743,0,0,1,1.741-1.741H38.933a1.743,1.743,0,0,1,1.741,1.741v2.581A.663.663,0,0,0,41.337,83.254Z" transform="translate(0 -76.943)" fill="#4d829b"/>
      </g>
    </g>
    <g id="Group_289" data-name="Group 289" transform="translate(4.899 9.678)">
      <g id="Group_288" data-name="Group 288">
        <path id="Path_217" data-name="Path 217" d="M68.1,194.926l-1.1,2.651-.018.057-.5-1.136-.7-1.517h0l-.026-.055H64.288v3.7l-1.547-3.7H61.36l-1.634,3.867H60.7l.2-.436.183-.393h1.878l.387.829h1.878v-3.038l1.326,3.038h.814l1.285-2.913v0l.055-.127v3.038h.884v-3.867Zm-6.684,2.209.608-1.547.608,1.547Z" transform="translate(-59.726 -194.926)" fill="#4d829b"/>
      </g>
    </g>
    <g id="Group_291" data-name="Group 291" transform="translate(24.817 9.678)">
      <g id="Group_290" data-name="Group 290">
        <path id="Path_218" data-name="Path 218" d="M311.926,194.98v2.707l-1.6-2.707h-1.381v3.7l-.407-.974-1.14-2.727h-1.381l-1.141,2.727-.13.311h-.387a.88.88,0,0,1-.663-.221,1.2,1.2,0,0,1-.276-.939,1.3,1.3,0,0,1,.276-.884,1.018,1.018,0,0,1,.718-.221h.884v-.829h-.884a1.741,1.741,0,0,0-1.381.442,2.263,2.263,0,0,0-.5,1.547,1.66,1.66,0,0,0,1.823,1.933h1.05l.331-.884h1.933l.161.4.17.426h.939v0h.933v-.505l.006.006v-2.431l1.768,2.928h1.215V194.98Zm-5.855,2.154.663-1.547.608,1.547Z" transform="translate(-302.536 -194.925)" fill="#4d829b"/>
      </g>
    </g>
    <g id="Group_293" data-name="Group 293" transform="translate(19.183 9.678)">
      <g id="Group_292" data-name="Group 292">
        <path id="Path_219" data-name="Path 219" d="M237.438,197.918s0-.006,0-.009,0-.01,0-.016c0-.042,0-.082-.007-.121,0-.01,0-.02,0-.03,0-.028-.007-.056-.012-.083l-.005-.027c-.006-.028-.012-.054-.019-.08l0-.017c-.009-.03-.019-.059-.03-.087a.868.868,0,0,0-.114-.2.62.62,0,0,0-.054-.065l0,0a.741.741,0,0,0-.35-.209,1.1,1.1,0,0,0,.661-1.019.934.934,0,0,0-.44-.859,2.119,2.119,0,0,0-1.1-.166h-2.1v3.867h.939v-.828h0v-.553h.994a1.1,1.1,0,0,1,.5.054.5.5,0,0,1,.162.111.791.791,0,0,1,.132.32h0a1.9,1.9,0,0,1,.033.35v0c0,.036,0,.07,0,.1v.442h.828v-.773c0-.034,0-.065,0-.1C237.438,197.921,237.438,197.92,237.438,197.918Zm-1-1.442a.3.3,0,0,1-.043.059l-.013.015h0a.2.2,0,0,1-.046.033,1.075,1.075,0,0,1-.442.055h-1.1v-.884h1.1a1.079,1.079,0,0,1,.442.055.309.309,0,0,1,.168.188h0s0,.008,0,.013a.327.327,0,0,1,.008.05A.6.6,0,0,1,236.438,196.476Z" transform="translate(-233.85 -194.924)" fill="#4d829b"/>
      </g>
    </g>
    <g id="Group_295" data-name="Group 295" transform="translate(2.256 7.579)">
      <g id="Group_294" data-name="Group 294">
        <path id="Path_220" data-name="Path 220" d="M64.98,180.821a3.536,3.536,0,0,0-.276-1.359v-2.176c0-.027,0-.055,0-.082v-.084a1.326,1.326,0,0,0-1.326-1.326h-.826v-5.137a1.326,1.326,0,0,0-1.326-1.326H58.737a1.357,1.357,0,0,0-.166.01,1.333,1.333,0,0,0-.165-.01h-2.6a1.345,1.345,0,0,1-.332,0H51.943a5.325,5.325,0,0,0-1.045.1,1.322,1.322,0,0,0-.5-.1H47.911a1.331,1.331,0,0,0-.4.06,3.424,3.424,0,0,0-.652-.06H37.968a1.325,1.325,0,0,0-.608.147,1.324,1.324,0,0,0-.608-.147H33.935a1.339,1.339,0,0,1-.276,0h-2.43a1.326,1.326,0,0,0-1.22.807l-1.1,2.583-1.265,2.8-.013.03-.023.055a1.326,1.326,0,0,0,1.222,1.841h2.876a1.324,1.324,0,0,0,.7-.2,1.325,1.325,0,0,0,.7.2h2.1V182.7a1.326,1.326,0,0,0,1.326,1.326h4.861a1.327,1.327,0,0,0,.746-.229,1.326,1.326,0,0,0,.746.229h3.093a1.32,1.32,0,0,0,.735-.222,1.32,1.32,0,0,0,.812.277H50.01a1.349,1.349,0,0,1,.276,0H57.8a4.5,4.5,0,0,0,.827-.076,1.325,1.325,0,0,0,.443.076h2.375a3.752,3.752,0,0,0,2.033-.481,3.165,3.165,0,0,0,1.489-2.475c0-.025.006-.05.008-.075a1.333,1.333,0,0,0,0-.164C64.979,180.866,64.98,180.844,64.98,180.821Zm-28.669-5.358v.663h-3.2l-.331-.884h-.718l-.331.828-.02.055H28.83l.023-.055,1.27-2.817,1.1-2.6h2.43l.276.663v-.663h2.817l.608,1.381.608-1.381h8.893a1.593,1.593,0,0,1,1.05.331v-.331H50.4v.331a3.363,3.363,0,0,1,1.547-.331h3.535l.332.663v-.663h2.6l.331.663v-.663h2.486v5.413h-2.6l-.5-.828v.828h-3.2l-.331-.884h-.773l-.331.884H51.833a3.306,3.306,0,0,1-1.491-.331v.331H46.364v-1.215c0-.166,0-.166-.11-.166h-.11v1.436H38.465v-.663l-.276.663h-1.6Zm27.336,5.526a1.855,1.855,0,0,1-.877,1.489,2.479,2.479,0,0,1-1.326.276H59.069v-.332a2.165,2.165,0,0,1-1.27.332H50.286v-1.271c0-.166,0-.166-.166-.166h-.11v1.436H47.524v-1.492a3.355,3.355,0,0,1-1.27.166h-.276V182.7H42.884l-.692-.8-.8.8H36.532V177.12H41.5l.718.829.773-.829h3.314a2.322,2.322,0,0,1,1.207.277h0a.6.6,0,0,1,.064.055v-.331h2.983a2.137,2.137,0,0,1,1.215.331v-.331h4.529v.331a1.756,1.756,0,0,1,1.1-.331h2.541v.331l.005,0h0c.01-.008.034-.026.069-.05h0a1.4,1.4,0,0,1,.688-.277h2.66v.166h0v2.486a2.115,2.115,0,0,1,.276,1.05c0,.036,0,.072,0,.107l0,0C63.652,180.951,63.649,180.97,63.647,180.989Z" transform="translate(-27.504 -169.331)" fill="#4d829b"/>
      </g>
    </g>
    <g id="Group_297" data-name="Group 297" transform="translate(12.223 16.307)">
      <g id="Group_296" data-name="Group 296">
        <path id="Path_221" data-name="Path 221" d="M159.341,276.452a1.433,1.433,0,0,0-1.445-.718h-2.928l-1.16,1.27-.028.029-.206-.225-.981-1.074H149V279.6h3.535l1.215-1.271.052.059,0,0,1.057,1.215h1.816v-.608h0v-.828h1.1c.828,0,1.6-.221,1.6-1.326A1.568,1.568,0,0,0,159.341,276.452Zm-7.245,2.375h-2.265V278h2.044v-.774h-2.044v-.718h2.32l.994,1.16Zm3.646.441-1.436-1.6,1.436-1.547ZM157.9,277.5H156.68v-.994h1.16a.558.558,0,0,1,.608.5C158.448,277.336,158.227,277.5,157.9,277.5Z" transform="translate(-149.002 -275.734)" fill="#4d829b"/>
      </g>
    </g>
    <g id="Group_299" data-name="Group 299" transform="translate(22.995 16.252)">
      <g id="Group_298" data-name="Group 298">
        <path id="Path_222" data-name="Path 222" d="M284.011,278.063c0-.021,0-.042,0-.062s0-.029,0-.044,0-.03-.006-.045,0-.032-.007-.048,0-.014,0-.022a1.106,1.106,0,0,0-.049-.18l0-.008q-.011-.028-.023-.055a.827.827,0,0,0-.061-.111.943.943,0,0,0-.5-.331,1.1,1.1,0,0,0,.663-1.05.978.978,0,0,0-.5-.884,2.228,2.228,0,0,0-1.1-.166h-2.1v3.922h.939v-1.436h.994c.331,0,.553,0,.663.165a1.233,1.233,0,0,1,.166.774v.5h.939v-.773c0-.037,0-.073,0-.108C284.013,278.087,284.012,278.075,284.011,278.063Zm-.99-1.678a.43.43,0,0,1-.166.387,1.074,1.074,0,0,1-.442.055h-1.1v-.884h1.1a1.074,1.074,0,0,1,.442.055A.307.307,0,0,1,283.021,276.385Z" transform="translate(-280.315 -275.059)" fill="#4d829b"/>
      </g>
    </g>
  </g>
  <g id="_001-google-wallet" data-name="001-google-wallet" transform="translate(0 0)">
    <g id="Group_261" data-name="Group 261" transform="translate(0 0)">
      <g id="Group_260" data-name="Group 260">
        <path id="Path_197" data-name="Path 197" d="M41.337,83.255A.663.663,0,0,0,42,82.592V80.011a3.071,3.071,0,0,0-3.067-3.067H3.067A3.071,3.071,0,0,0,0,80.011v23.242a3.071,3.071,0,0,0,3.067,3.068H38.932A3.071,3.071,0,0,0,42,103.253V84.744a.663.663,0,0,0-1.326,0v18.509a1.743,1.743,0,0,1-1.741,1.741H3.067a1.743,1.743,0,0,1-1.741-1.741V80.011A1.743,1.743,0,0,1,3.067,78.27H38.932a1.743,1.743,0,0,1,1.741,1.741v2.581A.663.663,0,0,0,41.337,83.255Z" transform="translate(0 -76.944)" fill="#4d829b"/>
      </g>
    </g>
    <g id="Group_263" data-name="Group 263" transform="translate(27.263 3.537)">
      <g id="Group_262" data-name="Group 262">
        <path id="Path_198" data-name="Path 198" d="M334.074,120.067h-1.061a.663.663,0,0,0,0,1.326h1.061a.663.663,0,0,0,0-1.326Z" transform="translate(-332.35 -120.067)" fill="#4d829b"/>
      </g>
    </g>
    <g id="Group_265" data-name="Group 265" transform="translate(30.21 3.537)">
      <g id="Group_264" data-name="Group 264">
        <path id="Path_199" data-name="Path 199" d="M370,120.067h-1.061a.663.663,0,0,0,0,1.326H370a.663.663,0,0,0,0-1.326Z" transform="translate(-368.278 -120.067)" fill="#4d829b"/>
      </g>
    </g>
    <g id="Group_267" data-name="Group 267" transform="translate(33.158 3.537)">
      <g id="Group_266" data-name="Group 266">
        <path id="Path_200" data-name="Path 200" d="M405.933,120.067h-1.061a.663.663,0,1,0,0,1.326h1.061a.663.663,0,1,0,0-1.326Z" transform="translate(-404.209 -120.067)" fill="#4d829b"/>
      </g>
    </g>
    <g id="Group_269" data-name="Group 269" transform="translate(36.105 3.537)">
      <g id="Group_268" data-name="Group 268">
        <path id="Path_201" data-name="Path 201" d="M441.863,120.067H440.8a.663.663,0,0,0,0,1.326h1.061a.663.663,0,0,0,0-1.326Z" transform="translate(-440.139 -120.067)" fill="#4d829b"/>
      </g>
    </g>
    <g id="Group_271" data-name="Group 271" transform="translate(14.954 23.786)">
      <g id="Group_270" data-name="Group 270">
        <path id="Path_202" data-name="Path 202" d="M193.724,366.9H182.958a.663.663,0,1,0,0,1.326h10.766a.663.663,0,0,0,0-1.326Z" transform="translate(-182.295 -366.905)" fill="#4d829b"/>
      </g>
    </g>
    <g id="Group_273" data-name="Group 273" transform="translate(13.765 6.691)">
      <g id="Group_272" data-name="Group 272">
        <path id="Path_203" data-name="Path 203" d="M181.952,162.9a15.961,15.961,0,0,0-1.118-3.184,2.2,2.2,0,0,0-1.943-1.214,2.084,2.084,0,0,0-.914.222,2.13,2.13,0,0,0-1.112,1.237,2.1,2.1,0,0,0,.113,1.631c.112.239.215.481.309.725a13.872,13.872,0,0,0-1.973-1.592,1.525,1.525,0,0,0-.262-.2,1.582,1.582,0,0,0-.16-.108.661.661,0,0,0-.221-.125,2.5,2.5,0,0,0-.324-.084l-.129.65.116-.653-.011,0-.066-.011c-.049-.008-.1-.014-.151-.019l-.029,0c-.066,0-.125-.007-.181-.007a1.846,1.846,0,0,0-.748.142,2.112,2.112,0,0,0-.725.461,1.971,1.971,0,0,0-.471.784,2.151,2.151,0,0,0,.057,1.55l-.006,0a10.618,10.618,0,0,0-1.252-.789l-.017-.009a2.082,2.082,0,0,0-.924-.227,2.03,2.03,0,0,0-1.768,1.056l-.011.021a2.011,2.011,0,0,0,.837,2.711,5.869,5.869,0,0,1,2.983,4.18c-.009.044-.017.089-.024.134l0,.012a2.033,2.033,0,0,0,0,.5,2.092,2.092,0,0,0,.994,1.592,1.6,1.6,0,0,0,.252.128c.019.008.039.016.058.025a.662.662,0,0,0,.2.087,2.389,2.389,0,0,0,.568.082,2.094,2.094,0,0,0,1.781-.995l.009-.013a9.855,9.855,0,0,0,.919-1.97,9.205,9.205,0,0,1,.18,1.813v.245a1.75,1.75,0,0,0-.031.32,2.042,2.042,0,0,0,.05.5,2.2,2.2,0,0,0,2.088,1.67,2.233,2.233,0,0,0,1.887-1.107c.009-.015.017-.03.025-.045a12.119,12.119,0,0,0,.89-2.334,9.021,9.021,0,0,0,.229-.885,15.063,15.063,0,0,0,.394-3.437A13.669,13.669,0,0,0,181.952,162.9Zm-9.005,3.7c0,.023,0,.047,0,.07,0,.048,0,.1-.008.144,0,.027,0,.055-.007.082q-.006.066-.013.132,0,.043-.01.085-.008.065-.018.13c0,.028-.008.055-.012.083-.007.046-.016.092-.024.137,0,.024-.009.049-.013.073q-.018.093-.04.186l0,.022c-.016.068-.034.136-.052.2-.006.024-.014.047-.02.071-.013.044-.026.089-.039.133l-.009.027a7.127,7.127,0,0,0-3.181-3.485.675.675,0,0,1-.333-.4.684.684,0,0,1,.043-.513.708.708,0,0,1,.61-.377.761.761,0,0,1,.323.083,9.31,9.31,0,0,1,1.1.7l.006,0,.018.013a8.982,8.982,0,0,1,1.32,1.2l.1.109.008.009c.086.1.168.2.245.294,0,.014,0,.027,0,.041s0,.038,0,.057,0,.067,0,.1c0,.019,0,.038,0,.057,0,.037,0,.075,0,.113,0,.016,0,.031,0,.047,0,.053,0,.106,0,.159C172.95,166.457,172.949,166.528,172.946,166.6Zm2.878.064c0,.052-.008.1-.011.157,0,.012,0,.025,0,.037,0,.041,0,.082,0,.124,0,.021,0,.043-.006.064l0,.046h0a8.9,8.9,0,0,1-1.237,3.8.776.776,0,0,1-.662.38.9.9,0,0,1-.165-.024c-.052-.026-.1-.047-.139-.064-.02-.008-.039-.016-.057-.025l-.013-.008a.753.753,0,0,1-.377-.581c0-.012,0-.024,0-.035a.694.694,0,0,1,0-.175v0a.592.592,0,0,1,.021-.1c0-.012.007-.024.01-.036l.007-.026a.667.667,0,0,0,.059-.082,7.2,7.2,0,0,0,1.038-3.733c0-.066,0-.133,0-.2,0-.017,0-.035,0-.052,0-.051,0-.1,0-.152,0-.023,0-.046,0-.069,0-.047,0-.093-.007-.14,0-.025-.005-.05-.007-.075,0-.046-.008-.091-.013-.138,0-.007,0-.015,0-.022l-.006-.052v0a6.561,6.561,0,0,0-.97-2.843l-.007-.011A.771.771,0,0,1,173.2,162l.006-.017a.68.68,0,0,1,.153-.274.828.828,0,0,1,.28-.168.543.543,0,0,1,.256-.047c.028,0,.055,0,.082,0h.016l.058.007.023,0,.02,0,.047.01.042.021a.284.284,0,0,1,.066.04.614.614,0,0,0,.129.086.313.313,0,0,1,.044.037l0,0,.035.038.021.026.013.016.025.032v0c.014.022.033.049.057.08a8.957,8.957,0,0,1,1.259,4.514C175.837,166.49,175.831,166.575,175.824,166.664Zm2.211,0c0,.027,0,.055,0,.082,0,.076-.005.152-.009.228,0,.043-.006.085-.009.128,0,.06-.007.12-.012.18s-.009.093-.013.139-.01.112-.016.167-.011.087-.016.13-.014.116-.021.174c-.005.039-.012.078-.018.116-.009.062-.018.124-.028.186-.005.032-.012.065-.017.1-.012.068-.024.136-.037.2-.005.028-.012.055-.017.083-.014.071-.029.142-.045.212a9.9,9.9,0,0,0-.641-1.761c0-.006,0-.012,0-.017,0-.068.007-.155.014-.247.009-.113.018-.229.018-.349,0,0,0-.008,0-.012q0-.178-.012-.355c0-.033,0-.065-.006-.1,0-.085-.01-.169-.016-.253,0-.042-.008-.084-.012-.127-.007-.074-.013-.147-.021-.22-.005-.047-.012-.093-.018-.14-.008-.068-.016-.136-.026-.2-.007-.049-.016-.1-.023-.147-.01-.064-.02-.129-.031-.193s-.019-.1-.029-.151-.023-.123-.036-.184-.023-.1-.035-.154-.026-.118-.041-.177-.027-.1-.041-.156-.026-.1-.04-.153a11.061,11.061,0,0,1,1.206,1.546c.036.368.056.74.056,1.115Q178.039,166.51,178.035,166.666Zm2.954-.331c0,.006,0,.013,0,.019a13.734,13.734,0,0,1-.359,3.143l0,.01a7.8,7.8,0,0,1-.2.779c0,.013-.008.026-.012.039a10.817,10.817,0,0,1-.787,2.077.91.91,0,0,1-.738.443.767.767,0,0,1-.331-.087l-.035-.016a.786.786,0,0,1-.431-.544l0-.012a.456.456,0,0,1-.01-.082.661.661,0,0,0,.03-.188s0,0,0-.008a1.376,1.376,0,0,1,.036-.178l.017-.041c.009-.022.019-.046.028-.072l0-.005.041-.09c.034-.072.067-.144.1-.217.021-.047.04-.094.06-.14s.049-.114.073-.171.052-.132.077-.2c.015-.039.031-.077.046-.116.03-.081.059-.162.087-.243l.027-.074c.034-.1.066-.2.1-.294l.009-.026q.05-.16.1-.321v0a12.183,12.183,0,0,0,.418-2.328v0q.013-.162.022-.325c0-.006,0-.011,0-.017q.018-.343.018-.691a12.869,12.869,0,0,0-.067-1.39.659.659,0,0,0-.024-.114,12.438,12.438,0,0,0-1.1-3.83l-.012-.024a.757.757,0,0,1-.041-.6.787.787,0,0,1,.42-.466l.02-.009a.767.767,0,0,1,.331-.087.879.879,0,0,1,.752.473,14.588,14.588,0,0,1,1.018,2.907A12.3,12.3,0,0,1,180.989,166.335Z" transform="translate(-167.8 -158.505)" fill="#4d829b"/>
      </g>
    </g>
  </g>
  <g id="_003-visa-logo" data-name="003-visa-logo" transform="translate(200 -2.431)">
    <g id="Group_275" data-name="Group 275" transform="translate(0 2.431)">
      <path id="Path_205" data-name="Path 205" d="M39.6,2.431H2.4A2.407,2.407,0,0,0,0,4.836v24.59a2.407,2.407,0,0,0,2.4,2.4H39.6a2.407,2.407,0,0,0,2.4-2.4V4.833A2.406,2.406,0,0,0,39.6,2.431Zm-.062,26.931-37.066.062L2.4,4.9l37.128-.062Z" transform="translate(0 -2.431)" fill="#4d829b"/>
      <path id="Path_206" data-name="Path 206" d="M3.375,7.9,4.5,15.976H7.272l5.163-10H9.525l-2.192,4.64c-.309.659-.579,1.254-.811,1.8-.042-.57-.089-1.123-.145-1.688l-.443-4.75H1.506l4.6,3.641Z" transform="translate(2.025 3.73)" fill="#4d829b"/>
      <path id="Path_207" data-name="Path 207" d="M8.51,15.977l1.9-10H7.8l-1.9,10Z" transform="translate(9.59 3.731)" fill="#4d829b"/>
      <path id="Path_208" data-name="Path 208" d="M7.77,15.472a5.046,5.046,0,0,0,2.872.729c2.464,0,4.12-1.393,4.12-3.463A3.1,3.1,0,0,0,12.743,10c-.76-.427-1.222-.713-1.222-1.074,0-.338.354-.7,1.193-.7a3.463,3.463,0,0,1,1.562.385l.3.162L15.4,6.541l-.218-.122a4.812,4.812,0,0,0-2.366-.511c-2.359,0-4.007,1.379-4.007,3.353a3.277,3.277,0,0,0,2.115,2.76c.928.483,1.111.757,1.111,1.069,0,.6-.647.814-1.2.814a4.132,4.132,0,0,1-2.073-.56l-.293-.174-.882,2.171Z" transform="translate(12.563 3.644)" fill="#4d829b"/>
      <path id="Path_209" data-name="Path 209" d="M13.32,15.977l1.118-2.445h2.256l.2,2.445H19.6l-1.172-10H15.4l-4.868,10ZM16.04,9.8c.1-.225.209-.483.317-.748.019.237.035.46.049.652l.152,1.709H15.292Z" transform="translate(18.159 3.731)" fill="#4d829b"/>
    </g>
  </g>
</svg>
