<svg xmlns="http://www.w3.org/2000/svg" width="30.248" height="28.001" viewBox="0 0 30.248 28.001">
  <g id="shopping-cart-dark-grey" transform="translate(-0.642 -0.275)">
    <path id="Path_248" data-name="Path 248" d="M6.609.832A.681.681,0,0,0,5.927.275h-4.6a.679.679,0,1,0,0,1.358H5.368l.917,5.032a.711.711,0,0,0,0,.071l2,10.934a3.406,3.406,0,0,0,3.355,2.788H24.666a3.407,3.407,0,0,0,3.3-2.543l2.9-11.169a.679.679,0,0,0-.361-.78.684.684,0,0,0-.3-.069H7.533ZM29.327,7.257l-2.68,10.32A2.044,2.044,0,0,1,24.666,19.1H11.645A2.044,2.044,0,0,1,9.63,17.43L7.775,7.243Z" fill="#165c7d"/>
    <path id="Path_249" data-name="Path 249" d="M16.3,28.527a3,3,0,0,0-1.859-2.77,3.01,3.01,0,0,0-4.1,2.185,2.993,2.993,0,0,0,1.28,3.078A3.011,3.011,0,0,0,16.3,28.527Zm-4.657,0a1.64,1.64,0,0,1,1.017-1.515,1.647,1.647,0,0,1,2.245,1.2,1.637,1.637,0,0,1-.7,1.684,1.649,1.649,0,0,1-2.565-1.364Z" transform="translate(-1.239 -3.249)" fill="#165c7d"/>
    <path id="Path_250" data-name="Path 250" d="M29.28,28.527a3,3,0,0,0-1.858-2.77,3.01,3.01,0,0,0-4.1,2.185A2.993,2.993,0,0,0,24.6,31.02a3.011,3.011,0,0,0,4.683-2.493Zm-4.657,0a1.64,1.64,0,0,1,1.017-1.515,1.646,1.646,0,0,1,2.245,1.2,1.637,1.637,0,0,1-.7,1.684,1.649,1.649,0,0,1-2.565-1.364Z" transform="translate(-2.91 -3.249)" fill="#165c7d"/>
  </g>
</svg>
