<svg id="surface1" xmlns="http://www.w3.org/2000/svg" width="42" height="29.438" viewBox="0 0 42 29.438">
  <path id="Path_210" data-name="Path 210" d="M93.24,64.263a9.557,9.557,0,1,0,0,16.3,9.555,9.555,0,1,0,0-16.3Zm0,13.146a7.052,7.052,0,0,1,0-9.995A7.052,7.052,0,0,1,93.24,77.409Zm-4.988,2.066a7.064,7.064,0,1,1,2.906-13.5,9.572,9.572,0,0,0,0,12.876A7.014,7.014,0,0,1,88.252,79.476Zm9.975,0a7.014,7.014,0,0,1-2.906-.626,9.572,9.572,0,0,0,0-12.876,7.064,7.064,0,1,1,2.906,13.5Zm0,0" transform="translate(-72.24 -57.693)" fill="#4d829b"/>
  <path id="Path_211" data-name="Path 211" d="M38.26,0H3.74A3.745,3.745,0,0,0,0,3.74V25.7a3.745,3.745,0,0,0,3.74,3.74H38.26A3.745,3.745,0,0,0,42,25.7V3.74A3.745,3.745,0,0,0,38.26,0Zm1.247,25.7a1.248,1.248,0,0,1-1.247,1.247H3.74A1.248,1.248,0,0,1,2.493,25.7V3.74A1.248,1.248,0,0,1,3.74,2.493H38.26A1.248,1.248,0,0,1,39.507,3.74Zm0,0" transform="translate(0 0)" fill="#4d829b"/>
</svg>
