<svg xmlns="http://www.w3.org/2000/svg" width="26.936" height="25.4" viewBox="0 0 26.936 25.4">
  <g id="user" transform="translate(-5.565 -1216)">
    <path id="Path_246" data-name="Path 246" d="M990.253,5216.611a.672.672,0,0,1-1.343-.037c.094-3.411,1.011-6.826,3.821-9.015,3.955-3.079,15.338-3.079,19.293,0,2.81,2.189,3.727,5.6,3.821,9.015a.672.672,0,0,1-1.343.037c-.081-2.972-.849-6.084-3.3-7.994-3.438-2.676-14.2-2.676-17.641,0C991.1,5210.527,990.333,5213.64,990.253,5216.611Z" transform="translate(-983.344 -3975.855)" fill="#165c7d"/>
    <path id="Path_247" data-name="Path 247" d="M3208.037,1216a6.039,6.039,0,1,1-6.037,6.04A6.04,6.04,0,0,1,3208.037,1216Zm0,1.35a4.691,4.691,0,1,0,4.69,4.691A4.689,4.689,0,0,0,3208.037,1217.35Z" transform="translate(-3189.004)" fill="#165c7d"/>
  </g>
</svg>
